# xmcd
#
# Track frame offsets:
#	150
#	18128
#	36439
#	54176
#	72657
#	93937
#	114209
#	131154
#	145359
#	158657
#	178885
#	194872
#	214359
#	228403
#	245752
#	272704
#	288549
#	305411
#	322326
#	333111
#
# Disc length: 4618 seconds
#
# Revision: 1
# Processed by: cddbd v1.5.2PL0 Copyright (c) Steve Scherf et al.
# Submitted via: audiograbber 1.83.01
#
DISCID=3a120814
DTITLE=Diversen - 100 Nederpop Hits cd 1
DYEAR=1900
DGENRE=
TTITLE0=Blof - Liefs uit London
TTITLE1=Acda en de Munnik - Niet of nooit geweest
TTITLE2=Veldhuis and Kemper - Ik wou dat ik jou was
TTITLE3=Van Dik Hout - Stil in mij
TTITLE4=Paul de Leeuw - 'K heb je lief
TTITLE5=Henk Westbroek - Waar ze loopt te wandelen
TTITLE6=Guus Meeuwis - Geef mij je angst
TTITLE7=Abel - Onderweg
TTITLE8=Doe Maar - Watje
TTITLE9=De Kast - Hart van mijn gevoel
TTITLE10=De Dijk - Als ze er niet is 
TTITLE11=De Poema's - Mijn houten hart
TTITLE12=Frank Boeijen Groep - Zwart wit
TTITLE13=Herman van Veen - Hilversum lll
TTITLE14=Het Goede Doel - Belgie
TTITLE15=Klein Orkest - Over de muur
TTITLE16=Rob de Nijs - Banger Hart
TTITLE17=Volumia - Hou me vast
TTITLE18=Toontje Lager - Stiekem gedanst
TTITLE19=All Stars - Groen als gras
EXTD=
EXTT0=
EXTT1=
EXTT2=
EXTT3=
EXTT4=
EXTT5=
EXTT6=
EXTT7=
EXTT8=
EXTT9=
EXTT10=
EXTT11=
EXTT12=
EXTT13=
EXTT14=
EXTT15=
EXTT16=
EXTT17=
EXTT18=
EXTT19=
PLAYORDER=
